<svg xmlns="http://www.w3.org/2000/svg" width="400" height="300" viewBox="0 0 400 300">
  <defs>
    <linearGradient id="bg" x1="0%" y1="0%" x2="100%" y2="100%">
      <stop offset="0%" style="stop-color:#4c1d95"/>
      <stop offset="100%" style="stop-color:#8b5cf6"/>
    </linearGradient>
  </defs>
  <rect width="400" height="300" fill="url(#bg)"/>
  <g transform="translate(200,110)" fill="none" stroke="white" stroke-width="2.5" stroke-linecap="round" stroke-linejoin="round">
    <path d="M-30,-50 Q-35,-55 -35,-45 L-35,40 Q-35,50 -25,50 L25,50 Q35,50 35,40 L35,-45 Q35,-55 30,-50 Z" fill="rgba(255,255,255,0.1)"/>
    <path d="M-20,-50 Q-20,-60 0,-60 Q20,-60 20,-50" fill="none"/>
    <rect x="-22" y="-30" width="44" height="30" rx="5" fill="rgba(255,255,255,0.12)"/>
    <line x1="0" y1="-30" x2="0" y2="0"/>
    <rect x="-18" y="10" width="36" height="20" rx="4" fill="rgba(255,255,255,0.15)"/>
    <rect x="-8" y="15" width="16" height="10" rx="2" fill="rgba(255,255,255,0.1)"/>
    <line x1="-35" y1="-20" x2="-40" y2="-30"/>
    <line x1="35" y1="-20" x2="40" y2="-30"/>
  </g>
  <text x="200" y="225" text-anchor="middle" font-family="system-ui,sans-serif" font-size="18" font-weight="600" fill="white">Ankara Backpack</text>
  <text x="200" y="250" text-anchor="middle" font-family="system-ui,sans-serif" font-size="12" fill="rgba(255,255,255,0.7)">Handmade Print</text>
  <rect x="20" y="20" width="65" height="24" rx="12" fill="rgba(255,255,255,0.15)"/>
  <text x="52" y="36" text-anchor="middle" font-family="system-ui,sans-serif" font-size="11" font-weight="500" fill="white">Clothing</text>
</svg>