<svg xmlns="http://www.w3.org/2000/svg" width="400" height="300" viewBox="0 0 400 300">
  <defs>
    <linearGradient id="bg" x1="0%" y1="0%" x2="100%" y2="100%">
      <stop offset="0%" style="stop-color:#7f1d1d"/>
      <stop offset="100%" style="stop-color:#ef4444"/>
    </linearGradient>
  </defs>
  <rect width="400" height="300" fill="url(#bg)"/>
  <g transform="translate(200,110)" fill="none" stroke="white" stroke-width="2.5" stroke-linecap="round" stroke-linejoin="round">
    <ellipse cx="-25" cy="-20" rx="20" ry="28" fill="rgba(255,255,255,0.1)"/>
    <line x1="-25" y1="8" x2="-25" y2="50"/>
    <ellipse cx="25" cy="-20" rx="20" ry="28" fill="rgba(255,255,255,0.1)"/>
    <line x1="25" y1="8" x2="25" y2="50"/>
    <line x1="-38" y1="-35" x2="-12" y2="-35"/>
    <line x1="-38" y1="-25" x2="-12" y2="-25"/>
    <line x1="-38" y1="-15" x2="-12" y2="-15"/>
    <line x1="-38" y1="-5" x2="-12" y2="-5"/>
    <line x1="12" y1="-35" x2="38" y2="-35"/>
    <line x1="12" y1="-25" x2="38" y2="-25"/>
    <line x1="12" y1="-15" x2="38" y2="-15"/>
    <line x1="12" y1="-5" x2="38" y2="-5"/>
    <path d="M0,5 L3,0 L6,5 L9,0 L12,5" stroke="rgba(255,255,255,0.5)" stroke-width="1.5"/>
    <circle cx="6" cy="-5" r="2" fill="rgba(255,255,255,0.4)"/>
  </g>
  <text x="200" y="225" text-anchor="middle" font-family="system-ui,sans-serif" font-size="18" font-weight="600" fill="white">Badminton Set</text>
  <text x="200" y="250" text-anchor="middle" font-family="system-ui,sans-serif" font-size="12" fill="rgba(255,255,255,0.7)">2 Rackets + Shuttlecocks</text>
  <rect x="20" y="20" width="85" height="24" rx="12" fill="rgba(255,255,255,0.15)"/>
  <text x="62" y="36" text-anchor="middle" font-family="system-ui,sans-serif" font-size="11" font-weight="500" fill="white">Sports &amp; Fitness</text>
</svg>