<svg xmlns="http://www.w3.org/2000/svg" width="400" height="300" viewBox="0 0 400 300">
  <defs>
    <linearGradient id="bg" x1="0%" y1="0%" x2="100%" y2="100%">
      <stop offset="0%" style="stop-color:#78350f"/>
      <stop offset="100%" style="stop-color:#d97706"/>
    </linearGradient>
  </defs>
  <rect width="400" height="300" fill="url(#bg)"/>
  <g transform="translate(200,110)" fill="none" stroke="white" stroke-width="2.5" stroke-linecap="round" stroke-linejoin="round">
    <rect x="-45" y="-55" width="90" height="110" rx="3" fill="rgba(255,255,255,0.08)"/>
    <line x1="-45" y1="-20" x2="45" y2="-20"/>
    <line x1="-45" y1="15" x2="45" y2="15"/>
    <rect x="-35" y="-50" width="10" height="28" rx="1" fill="rgba(255,255,255,0.2)"/>
    <rect x="-22" y="-45" width="8" height="23" rx="1" fill="rgba(255,255,255,0.15)"/>
    <rect x="-11" y="-48" width="9" height="26" rx="1" fill="rgba(255,255,255,0.18)"/>
    <rect x="0" y="-43" width="10" height="21" rx="1" fill="rgba(255,255,255,0.12)"/>
    <rect x="13" y="-47" width="8" height="25" rx="1" fill="rgba(255,255,255,0.2)"/>
    <rect x="24" y="-44" width="10" height="22" rx="1" fill="rgba(255,255,255,0.15)"/>
    <rect x="-30" y="-15" width="25" height="28" rx="2" fill="rgba(255,255,255,0.15)"/>
    <rect x="5" y="-15" width="30" height="28" rx="2" fill="rgba(255,255,255,0.1)"/>
    <rect x="-35" y="20" width="30" height="30" rx="2" fill="rgba(255,255,255,0.12)"/>
    <rect x="0" y="20" width="15" height="30" rx="2" fill="rgba(255,255,255,0.15)"/>
    <rect x="20" y="20" width="20" height="30" rx="2" fill="rgba(255,255,255,0.1)"/>
  </g>
  <text x="200" y="225" text-anchor="middle" font-family="system-ui,sans-serif" font-size="18" font-weight="600" fill="white">Bookshelf</text>
  <text x="200" y="250" text-anchor="middle" font-family="system-ui,sans-serif" font-size="12" fill="rgba(255,255,255,0.7)">3 Tier Wooden</text>
  <rect x="20" y="20" width="65" height="24" rx="12" fill="rgba(255,255,255,0.15)"/>
  <text x="52" y="36" text-anchor="middle" font-family="system-ui,sans-serif" font-size="11" font-weight="500" fill="white">Furniture</text>
</svg>