<svg xmlns="http://www.w3.org/2000/svg" width="400" height="300" viewBox="0 0 400 300">
  <defs>
    <linearGradient id="bg" x1="0%" y1="0%" x2="100%" y2="100%">
      <stop offset="0%" style="stop-color:#7f1d1d"/>
      <stop offset="100%" style="stop-color:#ef4444"/>
    </linearGradient>
  </defs>
  <rect width="400" height="300" fill="url(#bg)"/>
  <g transform="translate(200,110)" fill="none" stroke="white" stroke-width="2.5" stroke-linecap="round" stroke-linejoin="round">
    <path d="M-40,10 L-40,-20 Q-40,-35 -25,-35 L-10,-35 Q0,-35 5,-25 L10,-10 L30,-10 Q40,-10 40,0 L40,15 L-40,15 Z" fill="rgba(255,255,255,0.1)"/>
    <line x1="-30" y1="-25" x2="-10" y2="-25"/>
    <line x1="-30" y1="-15" x2="-10" y2="-15"/>
    <line x1="-30" y1="-5" x2="-10" y2="-5"/>
    <line x1="10" y1="-5" x2="30" y2="-5"/>
    <circle cx="-35" cy="20" r="3" fill="rgba(255,255,255,0.3)"/>
    <circle cx="-25" cy="20" r="3" fill="rgba(255,255,255,0.3)"/>
    <circle cx="-15" cy="20" r="3" fill="rgba(255,255,255,0.3)"/>
    <circle cx="-5" cy="20" r="3" fill="rgba(255,255,255,0.3)"/>
    <circle cx="5" cy="20" r="3" fill="rgba(255,255,255,0.3)"/>
    <circle cx="15" cy="20" r="3" fill="rgba(255,255,255,0.3)"/>
    <circle cx="25" cy="20" r="3" fill="rgba(255,255,255,0.3)"/>
    <circle cx="35" cy="20" r="3" fill="rgba(255,255,255,0.3)"/>
    <path d="M-35,-35 L-35,-55 Q-35,-60 -30,-60 L-15,-60 Q-10,-60 -10,-55 L-10,-35" fill="rgba(255,255,255,0.08)"/>
  </g>
  <text x="200" y="225" text-anchor="middle" font-family="system-ui,sans-serif" font-size="18" font-weight="600" fill="white">Football Boots</text>
  <text x="200" y="250" text-anchor="middle" font-family="system-ui,sans-serif" font-size="12" fill="rgba(255,255,255,0.7)">Size 42</text>
  <rect x="20" y="20" width="85" height="24" rx="12" fill="rgba(255,255,255,0.15)"/>
  <text x="62" y="36" text-anchor="middle" font-family="system-ui,sans-serif" font-size="11" font-weight="500" fill="white">Sports &amp; Fitness</text>
</svg>