<svg xmlns="http://www.w3.org/2000/svg" width="400" height="300" viewBox="0 0 400 300">
  <defs>
    <linearGradient id="bg" x1="0%" y1="0%" x2="100%" y2="100%">
      <stop offset="0%" style="stop-color:#1e3a5f"/>
      <stop offset="100%" style="stop-color:#2563eb"/>
    </linearGradient>
  </defs>
  <rect width="400" height="300" fill="url(#bg)"/>
  <g transform="translate(200,110)" fill="none" stroke="white" stroke-width="2.5" stroke-linecap="round" stroke-linejoin="round">
    <rect x="-35" y="-55" width="70" height="110" rx="8" fill="rgba(255,255,255,0.1)"/>
    <rect x="-25" y="-45" width="50" height="25" rx="3" fill="rgba(255,255,255,0.15)"/>
    <line x1="-20" y1="-10" x2="-8" y2="-10"/>
    <line x1="8" y1="-10" x2="20" y2="-10"/>
    <line x1="-20" y1="5" x2="-8" y2="5"/>
    <line x1="8" y1="5" x2="20" y2="5"/>
    <line x1="-20" y1="20" x2="-8" y2="20"/>
    <line x1="8" y1="20" x2="20" y2="20"/>
    <line x1="-20" y1="35" x2="20" y2="35"/>
    <circle cx="-14" cy="-10" r="2" fill="white"/>
    <circle cx="14" cy="-10" r="2" fill="white"/>
    <circle cx="-14" cy="5" r="2" fill="white"/>
    <circle cx="14" cy="5" r="2" fill="white"/>
    <circle cx="-14" cy="20" r="2" fill="white"/>
    <circle cx="14" cy="20" r="2" fill="white"/>
  </g>
  <text x="200" y="225" text-anchor="middle" font-family="system-ui,sans-serif" font-size="18" font-weight="600" fill="white">TI-84 Plus CE</text>
  <text x="200" y="250" text-anchor="middle" font-family="system-ui,sans-serif" font-size="12" fill="rgba(255,255,255,0.7)">Graphing Calculator</text>
  <rect x="20" y="20" width="60" height="24" rx="12" fill="rgba(255,255,255,0.15)"/>
  <text x="50" y="36" text-anchor="middle" font-family="system-ui,sans-serif" font-size="11" font-weight="500" fill="white">Electronics</text>
</svg>