<svg xmlns="http://www.w3.org/2000/svg" width="400" height="300" viewBox="0 0 400 300">
  <defs>
    <linearGradient id="bg" x1="0%" y1="0%" x2="100%" y2="100%">
      <stop offset="0%" style="stop-color:#065f46"/>
      <stop offset="100%" style="stop-color:#10b981"/>
    </linearGradient>
  </defs>
  <rect width="400" height="300" fill="url(#bg)"/>
  <g transform="translate(200,110)" fill="none" stroke="white" stroke-width="2.5" stroke-linecap="round" stroke-linejoin="round">
    <rect x="-35" y="-50" width="70" height="100" rx="4" fill="rgba(255,255,255,0.1)"/>
    <rect x="-35" y="-50" width="70" height="100" rx="4"/>
    <rect x="-30" y="-45" width="60" height="30" rx="2" fill="rgba(255,255,255,0.15)"/>
    <line x1="-20" y1="-28" x2="20" y2="-28"/>
    <line x1="-20" y1="-22" x2="20" y2="-22"/>
    <text x="0" y="-37" text-anchor="middle" font-family="serif" font-size="8" font-weight="bold" fill="white">CLRS</text>
    <line x1="-25" y1="-5" x2="25" y2="-5"/>
    <line x1="-25" y1="5" x2="25" y2="5"/>
    <line x1="-25" y1="15" x2="25" y2="15"/>
    <line x1="-25" y1="25" x2="15" y2="25"/>
    <line x1="-25" y1="35" x2="25" y2="35"/>
    <line x1="-35" y1="-50" x2="-38" y2="-47" stroke-width="3"/>
  </g>
  <text x="200" y="225" text-anchor="middle" font-family="system-ui,sans-serif" font-size="18" font-weight="600" fill="white">Intro to Algorithms</text>
  <text x="200" y="250" text-anchor="middle" font-family="system-ui,sans-serif" font-size="12" fill="rgba(255,255,255,0.7)">CLRS 3rd Edition</text>
  <rect x="20" y="20" width="50" height="24" rx="12" fill="rgba(255,255,255,0.15)"/>
  <text x="45" y="36" text-anchor="middle" font-family="system-ui,sans-serif" font-size="11" font-weight="500" fill="white">Books</text>
</svg>