<svg xmlns="http://www.w3.org/2000/svg" width="400" height="300" viewBox="0 0 400 300">
  <defs>
    <linearGradient id="bg" x1="0%" y1="0%" x2="100%" y2="100%">
      <stop offset="0%" style="stop-color:#065f46"/>
      <stop offset="100%" style="stop-color:#10b981"/>
    </linearGradient>
  </defs>
  <rect width="400" height="300" fill="url(#bg)"/>
  <g transform="translate(200,110)" fill="none" stroke="white" stroke-width="2.5" stroke-linecap="round" stroke-linejoin="round">
    <rect x="-35" y="-50" width="70" height="100" rx="4" fill="rgba(255,255,255,0.1)"/>
    <rect x="-35" y="-50" width="70" height="100" rx="4"/>
    <rect x="-30" y="-45" width="60" height="25" rx="2" fill="rgba(255,255,255,0.15)"/>
    <text x="0" y="-30" text-anchor="middle" font-family="serif" font-size="7" fill="white">DISCRETE MATH</text>
    <line x1="-25" y1="-12" x2="25" y2="-12"/>
    <circle cx="-12" cy="5" r="6" fill="rgba(255,255,255,0.15)"/>
    <circle cx="12" cy="5" r="6" fill="rgba(255,255,255,0.15)"/>
    <line x1="-6" y1="5" x2="6" y2="5"/>
    <text x="0" y="8" text-anchor="middle" font-family="monospace" font-size="6" fill="white">A∩B</text>
    <line x1="-25" y1="22" x2="25" y2="22"/>
    <line x1="-25" y1="32" x2="15" y2="32"/>
    <line x1="-35" y1="-50" x2="-38" y2="-47" stroke-width="3"/>
  </g>
  <text x="200" y="225" text-anchor="middle" font-family="system-ui,sans-serif" font-size="18" font-weight="600" fill="white">Discrete Mathematics</text>
  <text x="200" y="250" text-anchor="middle" font-family="system-ui,sans-serif" font-size="12" fill="rgba(255,255,255,0.7)">Rosen 7th Edition</text>
  <rect x="20" y="20" width="50" height="24" rx="12" fill="rgba(255,255,255,0.15)"/>
  <text x="45" y="36" text-anchor="middle" font-family="system-ui,sans-serif" font-size="11" font-weight="500" fill="white">Books</text>
</svg>