<svg xmlns="http://www.w3.org/2000/svg" width="400" height="300" viewBox="0 0 400 300">
  <defs>
    <linearGradient id="bg" x1="0%" y1="0%" x2="100%" y2="100%">
      <stop offset="0%" style="stop-color:#1e3a5f"/>
      <stop offset="100%" style="stop-color:#2563eb"/>
    </linearGradient>
  </defs>
  <rect width="400" height="300" fill="url(#bg)"/>
  <g transform="translate(200,110)" fill="none" stroke="white" stroke-width="2.5" stroke-linecap="round" stroke-linejoin="round">
    <rect x="-40" y="-60" width="80" height="120" rx="6" fill="rgba(255,255,255,0.1)"/>
    <line x1="-40" y1="-15" x2="40" y2="-15"/>
    <rect x="-36" y="-56" width="30" height="36" rx="3" fill="rgba(255,255,255,0.15)"/>
    <rect x="6" y="-56" width="30" height="36" rx="3" fill="rgba(255,255,255,0.15)"/>
    <rect x="-36" y="-8" width="72" height="60" rx="3" fill="rgba(255,255,255,0.1)"/>
    <line x1="-30" y1="10" x2="-30" y2="25" stroke="rgba(255,255,255,0.5)"/>
    <line x1="-20" y1="10" x2="-20" y2="25" stroke="rgba(255,255,255,0.5)"/>
    <line x1="-10" y1="10" x2="-10" y2="25" stroke="rgba(255,255,255,0.5)"/>
    <circle cx="32" cy="0" r="3" fill="rgba(255,255,255,0.5)"/>
    <circle cx="32" cy="15" r="3" fill="rgba(255,255,255,0.5)"/>
  </g>
  <text x="200" y="225" text-anchor="middle" font-family="system-ui,sans-serif" font-size="18" font-weight="600" fill="white">Mini Fridge</text>
  <text x="200" y="250" text-anchor="middle" font-family="system-ui,sans-serif" font-size="12" fill="rgba(255,255,255,0.7)">45L Capacity</text>
  <rect x="20" y="20" width="60" height="24" rx="12" fill="rgba(255,255,255,0.15)"/>
  <text x="50" y="36" text-anchor="middle" font-family="system-ui,sans-serif" font-size="11" font-weight="500" fill="white">Electronics</text>
</svg>