<svg xmlns="http://www.w3.org/2000/svg" width="400" height="300" viewBox="0 0 400 300">
  <defs>
    <linearGradient id="bg" x1="0%" y1="0%" x2="100%" y2="100%">
      <stop offset="0%" style="stop-color:#831843"/>
      <stop offset="100%" style="stop-color:#ec4899"/>
    </linearGradient>
  </defs>
  <rect width="400" height="300" fill="url(#bg)"/>
  <g transform="translate(200,105)" fill="none" stroke="white" stroke-width="2.5" stroke-linecap="round" stroke-linejoin="round">
    <path d="M-20,-55 L-30,-50 L-30,-20 L-40,-15 L-40,50 L40,50 L40,-15 L30,-20 L30,-50 L20,-55" fill="rgba(255,255,255,0.1)"/>
    <line x1="-30" y1="-20" x2="30" y2="-20"/>
    <path d="M-35,-15 Q0,-8 35,-15" fill="none"/>
    <line x1="-40" y1="5" x2="40" y2="5"/>
    <rect x="-15" y="15" width="30" height="20" rx="2" fill="rgba(255,255,255,0.12)"/>
    <line x1="-8" y1="22" x2="8" y2="22"/>
    <line x1="-8" y1="28" x2="8" y2="28"/>
    <path d="M-15,-45 Q-15,-55 -20,-55 L20,-55 Q15,-55 15,-45" fill="rgba(255,255,255,0.15)"/>
    <circle cx="0" cy="-50" r="3" fill="rgba(255,255,255,0.3)"/>
  </g>
  <text x="200" y="225" text-anchor="middle" font-family="system-ui,sans-serif" font-size="18" font-weight="600" fill="white">Graduation Gown</text>
  <text x="200" y="250" text-anchor="middle" font-family="system-ui,sans-serif" font-size="12" fill="rgba(255,255,255,0.7)">Rental - Standard Size</text>
  <rect x="20" y="20" width="95" height="24" rx="12" fill="rgba(255,255,255,0.15)"/>
  <text x="67" y="36" text-anchor="middle" font-family="system-ui,sans-serif" font-size="11" font-weight="500" fill="white">Tickets &amp; Events</text>
</svg>