<svg xmlns="http://www.w3.org/2000/svg" width="400" height="300" viewBox="0 0 400 300">
  <defs>
    <linearGradient id="bg" x1="0%" y1="0%" x2="100%" y2="100%">
      <stop offset="0%" style="stop-color:#4c1d95"/>
      <stop offset="100%" style="stop-color:#8b5cf6"/>
    </linearGradient>
  </defs>
  <rect width="400" height="300" fill="url(#bg)"/>
  <g transform="translate(200,108)" fill="none" stroke="white" stroke-width="2.5" stroke-linecap="round" stroke-linejoin="round">
    <path d="M-5,-55 L-35,-40 L-45,-10 L-35,-5 L-25,-15 L-25,45 L25,45 L25,-15 L35,-5 L45,-10 L35,-40 L5,-55" fill="rgba(255,255,255,0.1)"/>
    <path d="M-5,-55 L-15,-40 L-15,-25 Q-15,-15 0,-15 Q15,-15 15,-25 L15,-40 L5,-55" fill="rgba(255,255,255,0.15)"/>
    <line x1="0" y1="-15" x2="0" y2="10"/>
    <circle cx="0" cy="-35" r="3" fill="rgba(255,255,255,0.3)"/>
    <path d="M-8,20 L-8,30 Q0,35 8,30 L8,20" fill="rgba(255,255,255,0.1)"/>
  </g>
  <text x="200" y="225" text-anchor="middle" font-family="system-ui,sans-serif" font-size="18" font-weight="600" fill="white">University Hoodie</text>
  <text x="200" y="250" text-anchor="middle" font-family="system-ui,sans-serif" font-size="12" fill="rgba(255,255,255,0.7)">Size L - Deep Red</text>
  <rect x="20" y="20" width="65" height="24" rx="12" fill="rgba(255,255,255,0.15)"/>
  <text x="52" y="36" text-anchor="middle" font-family="system-ui,sans-serif" font-size="11" font-weight="500" fill="white">Clothing</text>
</svg>