<svg xmlns="http://www.w3.org/2000/svg" width="400" height="300" viewBox="0 0 400 300">
  <defs>
    <linearGradient id="bg" x1="0%" y1="0%" x2="100%" y2="100%">
      <stop offset="0%" style="stop-color:#4c1d95"/>
      <stop offset="100%" style="stop-color:#8b5cf6"/>
    </linearGradient>
  </defs>
  <rect width="400" height="300" fill="url(#bg)"/>
  <g transform="translate(200,108)" fill="none" stroke="white" stroke-width="2.5" stroke-linecap="round" stroke-linejoin="round">
    <path d="M-5,-55 L-40,-40 L-50,-5 L-40,0 L-30,-10 L-30,50 L30,50 L30,-10 L40,0 L50,-5 L40,-40 L5,-55" fill="rgba(255,255,255,0.1)"/>
    <path d="M-5,-55 L-15,-40 L-15,-30 L15,-30 L15,-40 L5,-55" fill="rgba(255,255,255,0.12)"/>
    <line x1="0" y1="-30" x2="0" y2="50"/>
    <circle cx="-8" cy="-15" r="2.5" fill="rgba(255,255,255,0.4)"/>
    <circle cx="-8" cy="0" r="2.5" fill="rgba(255,255,255,0.4)"/>
    <circle cx="-8" cy="15" r="2.5" fill="rgba(255,255,255,0.4)"/>
    <circle cx="-8" cy="30" r="2.5" fill="rgba(255,255,255,0.4)"/>
    <rect x="-28" y="-8" width="12" height="14" rx="2" fill="rgba(255,255,255,0.15)"/>
    <rect x="16" y="-8" width="12" height="14" rx="2" fill="rgba(255,255,255,0.15)"/>
  </g>
  <text x="200" y="225" text-anchor="middle" font-family="system-ui,sans-serif" font-size="18" font-weight="600" fill="white">Denim Jacket</text>
  <text x="200" y="250" text-anchor="middle" font-family="system-ui,sans-serif" font-size="12" fill="rgba(255,255,255,0.7)">Unisex Size M</text>
  <rect x="20" y="20" width="65" height="24" rx="12" fill="rgba(255,255,255,0.15)"/>
  <text x="52" y="36" text-anchor="middle" font-family="system-ui,sans-serif" font-size="11" font-weight="500" fill="white">Clothing</text>
</svg>