<svg xmlns="http://www.w3.org/2000/svg" width="400" height="300" viewBox="0 0 400 300">
  <defs>
    <linearGradient id="bg" x1="0%" y1="0%" x2="100%" y2="100%">
      <stop offset="0%" style="stop-color:#1e3a5f"/>
      <stop offset="100%" style="stop-color:#2563eb"/>
    </linearGradient>
  </defs>
  <rect width="400" height="300" fill="url(#bg)"/>
  <g transform="translate(200,105)" fill="none" stroke="white" stroke-width="2" stroke-linecap="round" stroke-linejoin="round">
    <rect x="-70" y="-20" width="140" height="50" rx="8" fill="rgba(255,255,255,0.1)"/>
    <rect x="-60" y="-14" width="12" height="10" rx="2" fill="rgba(255,255,255,0.2)"/>
    <rect x="-44" y="-14" width="12" height="10" rx="2" fill="rgba(255,255,255,0.2)"/>
    <rect x="-28" y="-14" width="12" height="10" rx="2" fill="rgba(255,255,255,0.2)"/>
    <rect x="-12" y="-14" width="12" height="10" rx="2" fill="rgba(255,255,255,0.2)"/>
    <rect x="4" y="-14" width="12" height="10" rx="2" fill="rgba(255,255,255,0.2)"/>
    <rect x="20" y="-14" width="12" height="10" rx="2" fill="rgba(255,255,255,0.2)"/>
    <rect x="36" y="-14" width="12" height="10" rx="2" fill="rgba(255,255,255,0.2)"/>
    <rect x="52" y="-14" width="12" height="10" rx="2" fill="rgba(255,255,255,0.2)"/>
    <rect x="-60" y="0" width="12" height="10" rx="2" fill="rgba(255,255,255,0.2)"/>
    <rect x="-44" y="0" width="12" height="10" rx="2" fill="rgba(255,255,255,0.2)"/>
    <rect x="-28" y="0" width="12" height="10" rx="2" fill="rgba(255,255,255,0.2)"/>
    <rect x="-12" y="0" width="56" height="10" rx="2" fill="rgba(255,255,255,0.2)"/>
    <rect x="44" y="0" width="12" height="10" rx="2" fill="rgba(255,255,255,0.2)"/>
    <rect x="-60" y="14" width="12" height="10" rx="2" fill="rgba(255,255,255,0.2)"/>
    <rect x="-44" y="14" width="80" height="10" rx="2" fill="rgba(255,255,255,0.2)"/>
    <rect x="40" y="14" width="16" height="10" rx="2" fill="rgba(255,255,255,0.2)"/>
    <g transform="translate(50,-55)">
      <ellipse cx="0" cy="0" rx="18" ry="22" fill="rgba(255,255,255,0.1)" stroke="white" stroke-width="2"/>
      <circle cx="0" cy="-8" r="3" fill="rgba(255,255,255,0.3)"/>
      <circle cx="-7" cy="4" r="2.5" fill="rgba(255,255,255,0.3)"/>
      <circle cx="7" cy="4" r="2.5" fill="rgba(255,255,255,0.3)"/>
      <circle cx="0" cy="10" r="2.5" fill="rgba(255,255,255,0.3)"/>
    </g>
  </g>
  <text x="200" y="225" text-anchor="middle" font-family="system-ui,sans-serif" font-size="18" font-weight="600" fill="white">Wireless Combo</text>
  <text x="200" y="250" text-anchor="middle" font-family="system-ui,sans-serif" font-size="12" fill="rgba(255,255,255,0.7)">Mouse + Keyboard</text>
  <rect x="20" y="20" width="60" height="24" rx="12" fill="rgba(255,255,255,0.15)"/>
  <text x="50" y="36" text-anchor="middle" font-family="system-ui,sans-serif" font-size="11" font-weight="500" fill="white">Electronics</text>
</svg>