<svg xmlns="http://www.w3.org/2000/svg" width="400" height="300" viewBox="0 0 400 300">
  <defs>
    <linearGradient id="bg" x1="0%" y1="0%" x2="100%" y2="100%">
      <stop offset="0%" style="stop-color:#374151"/>
      <stop offset="100%" style="stop-color:#9ca3af"/>
    </linearGradient>
  </defs>
  <rect width="400" height="300" fill="url(#bg)"/>
  <g transform="translate(200,108)" fill="none" stroke="white" stroke-width="2.5" stroke-linecap="round" stroke-linejoin="round">
    <path d="M-30,-55 L-40,-45 L-40,0 L-30,5 L-30,50 L30,50 L30,5 L40,0 L40,-45 L30,-55" fill="rgba(255,255,255,0.1)"/>
    <line x1="-30" y1="-55" x2="30" y2="-55"/>
    <line x1="-40" y1="0" x2="-50" y2="15"/>
    <line x1="40" y1="0" x2="50" y2="15"/>
    <line x1="-30" y1="50" x2="30" y2="50"/>
    <circle cx="-20" cy="-35" r="6" fill="none"/>
    <circle cx="20" cy="-35" r="6" fill="none"/>
    <rect x="-8" y="-30" width="16" height="20" rx="8" fill="rgba(255,255,255,0.12)"/>
    <line x1="-20" y1="-35" x2="-20" y2="-25"/>
    <line x1="20" y1="-35" x2="20" y2="-25"/>
    <rect x="-20" y="20" width="40" height="15" rx="3" fill="rgba(255,255,255,0.1)"/>
  </g>
  <text x="200" y="225" text-anchor="middle" font-family="system-ui,sans-serif" font-size="18" font-weight="600" fill="white">Lab Coat + Goggles</text>
  <text x="200" y="250" text-anchor="middle" font-family="system-ui,sans-serif" font-size="12" fill="rgba(255,255,255,0.7)">Organic Chemistry</text>
  <rect x="20" y="20" width="45" height="24" rx="12" fill="rgba(255,255,255,0.15)"/>
  <text x="42" y="36" text-anchor="middle" font-family="system-ui,sans-serif" font-size="11" font-weight="500" fill="white">Other</text>
</svg>