<svg xmlns="http://www.w3.org/2000/svg" width="400" height="300" viewBox="0 0 400 300">
  <defs>
    <linearGradient id="bg" x1="0%" y1="0%" x2="100%" y2="100%">
      <stop offset="0%" style="stop-color:#1e3a5f"/>
      <stop offset="100%" style="stop-color:#2563eb"/>
    </linearGradient>
  </defs>
  <rect width="400" height="300" fill="url(#bg)"/>
  <g transform="translate(200,110)" fill="none" stroke="white" stroke-width="2.5" stroke-linecap="round" stroke-linejoin="round">
    <line x1="0" y1="45" x2="0" y2="10"/>
    <line x1="0" y1="10" x2="-30" y2="-20"/>
    <line x1="0" y1="10" x2="30" y2="-20"/>
    <path d="M-30,-20 L-40,-50 L20,-50 L30,-20 Z" fill="rgba(255,255,255,0.15)"/>
    <line x1="-10" y1="45" x2="10" y2="45"/>
    <ellipse cx="0" cy="48" rx="20" ry="5" fill="rgba(255,255,255,0.1)"/>
    <circle cx="-5" cy="-35" r="8" fill="rgba(255,255,255,0.2)" stroke="none"/>
    <line x1="-15" y1="-65" x2="-5" y2="-50" stroke="rgba(255,255,255,0.4)"/>
    <line x1="5" y1="-65" x2="-5" y2="-50" stroke="rgba(255,255,255,0.4)"/>
    <line x1="-5" y1="-65" x2="-5" y2="-50" stroke="rgba(255,255,255,0.4)"/>
  </g>
  <text x="200" y="225" text-anchor="middle" font-family="system-ui,sans-serif" font-size="18" font-weight="600" fill="white">Reading Lamp</text>
  <text x="200" y="250" text-anchor="middle" font-family="system-ui,sans-serif" font-size="12" fill="rgba(255,255,255,0.7)">Adjustable Arm</text>
  <rect x="20" y="20" width="60" height="24" rx="12" fill="rgba(255,255,255,0.15)"/>
  <text x="50" y="36" text-anchor="middle" font-family="system-ui,sans-serif" font-size="11" font-weight="500" fill="white">Electronics</text>
</svg>