<svg xmlns="http://www.w3.org/2000/svg" width="400" height="300" viewBox="0 0 400 300">
  <defs>
    <linearGradient id="bg" x1="0%" y1="0%" x2="100%" y2="100%">
      <stop offset="0%" style="stop-color:#134e4a"/>
      <stop offset="100%" style="stop-color:#14b8a6"/>
    </linearGradient>
  </defs>
  <rect width="400" height="300" fill="url(#bg)"/>
  <g transform="translate(200,108)" fill="none" stroke="white" stroke-width="2.5" stroke-linecap="round" stroke-linejoin="round">
    <rect x="-50" y="-20" width="100" height="65" rx="3" fill="rgba(255,255,255,0.1)"/>
    <line x1="-40" y1="-10" x2="40" y2="-10"/>
    <line x1="-40" y1="0" x2="40" y2="0"/>
    <line x1="-40" y1="10" x2="40" y2="10"/>
    <line x1="-40" y1="20" x2="40" y2="20"/>
    <line x1="-40" y1="30" x2="20" y2="30"/>
    <rect x="-45" y="-45" width="30" height="22" rx="2" fill="rgba(255,255,255,0.15)"/>
    <circle cx="-30" cy="-34" r="4" fill="rgba(255,255,255,0.25)"/>
    <line x1="-38" y1="-28" x2="-22" y2="-28"/>
    <rect x="10" y="-48" width="8" height="25" rx="1" fill="rgba(255,255,255,0.2)"/>
    <rect x="22" y="-45" width="8" height="22" rx="1" fill="rgba(255,255,255,0.18)"/>
    <rect x="34" y="-42" width="8" height="19" rx="1" fill="rgba(255,255,255,0.15)"/>
    <path d="M-10,-50 L-10,-58 L6,-58 L6,-50" fill="rgba(255,255,255,0.12)"/>
  </g>
  <text x="200" y="225" text-anchor="middle" font-family="system-ui,sans-serif" font-size="18" font-weight="600" fill="white">Stationery Bundle</text>
  <text x="200" y="250" text-anchor="middle" font-family="system-ui,sans-serif" font-size="12" fill="rgba(255,255,255,0.7)">A4 Ream + Assorted Items</text>
  <rect x="20" y="20" width="72" height="24" rx="12" fill="rgba(255,255,255,0.15)"/>
  <text x="56" y="36" text-anchor="middle" font-family="system-ui,sans-serif" font-size="11" font-weight="500" fill="white">Stationery</text>
</svg>