<svg xmlns="http://www.w3.org/2000/svg" width="400" height="300" viewBox="0 0 400 300">
  <defs>
    <linearGradient id="bg" x1="0%" y1="0%" x2="100%" y2="100%">
      <stop offset="0%" style="stop-color:#7f1d1d"/>
      <stop offset="100%" style="stop-color:#ef4444"/>
    </linearGradient>
  </defs>
  <rect width="400" height="300" fill="url(#bg)"/>
  <g transform="translate(200,115)" fill="none" stroke="white" stroke-width="2.5" stroke-linecap="round" stroke-linejoin="round">
    <rect x="-70" y="-15" width="140" height="8" rx="4" fill="rgba(255,255,255,0.2)"/>
    <rect x="-70" y="-15" width="140" height="8" rx="4"/>
    <path d="M-65,-11 Q-65,-20 -55,-20 L-50,-20 Q-40,-20 -40,-11" fill="none"/>
    <path d="M-30,-11 Q-30,-25 -15,-25 L-10,-25 Q5,-25 5,-11" fill="none"/>
    <rect x="15" y="-20" width="50" height="13" rx="3" fill="rgba(255,255,255,0.12)"/>
    <line x1="20" y1="-14" x2="45" y2="-14" stroke="rgba(255,255,255,0.4)"/>
    <path d="M-10,20 Q-25,10 -25,25 Q-25,40 -10,35" fill="rgba(255,255,255,0.15)"/>
    <path d="M10,20 Q25,10 25,25 Q25,40 10,35" fill="rgba(255,255,255,0.15)"/>
    <line x1="-10" y1="20" x2="10" y2="20"/>
  </g>
  <text x="200" y="225" text-anchor="middle" font-family="system-ui,sans-serif" font-size="18" font-weight="600" fill="white">Yoga Mat + Bands</text>
  <text x="200" y="250" text-anchor="middle" font-family="system-ui,sans-serif" font-size="12" fill="rgba(255,255,255,0.7)">Resistance Band Set</text>
  <rect x="20" y="20" width="85" height="24" rx="12" fill="rgba(255,255,255,0.15)"/>
  <text x="62" y="36" text-anchor="middle" font-family="system-ui,sans-serif" font-size="11" font-weight="500" fill="white">Sports &amp; Fitness</text>
</svg>