<svg xmlns="http://www.w3.org/2000/svg" width="400" height="300" viewBox="0 0 400 300">
  <defs>
    <linearGradient id="bg" x1="0%" y1="0%" x2="100%" y2="100%">
      <stop offset="0%" style="stop-color:#1e3a8a"/>
      <stop offset="100%" style="stop-color:#3b82f6"/>
    </linearGradient>
  </defs>
  <rect width="400" height="300" fill="url(#bg)"/>
  <g transform="translate(200,108)" fill="none" stroke="white" stroke-width="2.5" stroke-linecap="round" stroke-linejoin="round">
    <rect x="-55" y="-35" width="110" height="70" rx="5" fill="rgba(255,255,255,0.1)"/>
    <text x="-42" y="-18" font-family="monospace" font-size="10" fill="rgba(255,255,255,0.7)">&lt;div&gt;</text>
    <text x="-35" y="-6" font-family="monospace" font-size="10" fill="rgba(255,255,255,0.6)">&lt;h1&gt;</text>
    <text x="-28" y="6" font-family="monospace" font-size="10" fill="rgba(255,255,255,0.8)">Hello</text>
    <text x="8" y="6" font-family="monospace" font-size="10" fill="rgba(255,255,255,0.6)">&lt;/h1&gt;</text>
    <text x="-35" y="18" font-family="monospace" font-size="10" fill="rgba(255,255,255,0.6)">&lt;/div&gt;</text>
    <rect x="25" y="-30" width="22" height="15" rx="2" fill="rgba(255,255,255,0.15)"/>
    <text x="36" y="-19" text-anchor="middle" font-family="monospace" font-size="7" fill="white">&lt;/&gt;</text>
    <line x1="-45" y1="30" x2="45" y2="30" stroke="rgba(255,255,255,0.3)"/>
    <rect x="-45" y="-35" width="110" height="4" rx="2" fill="rgba(255,255,255,0.15)"/>
    <circle cx="-40" cy="-33" r="1.5" fill="#ef4444"/>
    <circle cx="-35" cy="-33" r="1.5" fill="#eab308"/>
    <circle cx="-30" cy="-33" r="1.5" fill="#22c55e"/>
  </g>
  <text x="200" y="225" text-anchor="middle" font-family="system-ui,sans-serif" font-size="18" font-weight="600" fill="white">Web Dev Help</text>
  <text x="200" y="250" text-anchor="middle" font-family="system-ui,sans-serif" font-size="12" fill="rgba(255,255,255,0.7)">React / Next.js Debugging</text>
  <rect x="20" y="20" width="62" height="24" rx="12" fill="rgba(255,255,255,0.15)"/>
  <text x="51" y="36" text-anchor="middle" font-family="system-ui,sans-serif" font-size="11" font-weight="500" fill="white">Coding</text>
</svg>