<svg xmlns="http://www.w3.org/2000/svg" width="400" height="300" viewBox="0 0 400 300">
  <defs>
    <linearGradient id="bg" x1="0%" y1="0%" x2="100%" y2="100%">
      <stop offset="0%" style="stop-color:#065f46"/>
      <stop offset="100%" style="stop-color:#10b981"/>
    </linearGradient>
  </defs>
  <rect width="400" height="300" fill="url(#bg)"/>
  <g transform="translate(200,108)" fill="none" stroke="white" stroke-width="2.5" stroke-linecap="round" stroke-linejoin="round">
    <rect x="-40" y="-30" width="55" height="40" rx="5" fill="rgba(255,255,255,0.1)"/>
    <rect x="-35" y="-25" width="45" height="30" rx="3" fill="rgba(255,255,255,0.08)"/>
    <circle cx="-20" cy="-10" r="5" fill="rgba(255,255,255,0.2)"/>
    <circle cx="0" cy="-10" r="5" fill="rgba(255,255,255,0.15)"/>
    <line x1="-13" y1="-8" x2="-5" y2="-8" stroke="rgba(255,255,255,0.5)"/>
    <line x1="5" y1="-8" x2="13" y2="-8" stroke="rgba(255,255,255,0.5)"/>
    <circle cx="30" cy="-10" r="12" fill="rgba(255,255,255,0.1)"/>
    <text x="30" y="-6" text-anchor="middle" font-family="sans-serif" font-size="10" fill="white">→</text>
    <path d="M20,15 Q30,8 40,15" fill="none" stroke="rgba(255,255,255,0.5)"/>
    <circle cx="20" cy="15" r="2" fill="white"/>
    <circle cx="40" cy="15" r="2" fill="white"/>
    <rect x="10" y="20" width="45" height="12" rx="3" fill="rgba(255,255,255,0.12)"/>
    <line x1="15" y1="26" x2="50" y2="26" stroke="rgba(255,255,255,0.3)"/>
  </g>
  <text x="200" y="225" text-anchor="middle" font-family="system-ui,sans-serif" font-size="18" font-weight="600" fill="white">Package Delivery</text>
  <text x="200" y="250" text-anchor="middle" font-family="system-ui,sans-serif" font-size="12" fill="rgba(255,255,255,0.7)">Campus-Wide Tracking</text>
  <rect x="20" y="20" width="72" height="24" rx="12" fill="rgba(255,255,255,0.15)"/>
  <text x="56" y="36" text-anchor="middle" font-family="system-ui,sans-serif" font-size="11" font-weight="500" fill="white">Delivery</text>
</svg>