<svg xmlns="http://www.w3.org/2000/svg" width="400" height="300" viewBox="0 0 400 300">
  <defs>
    <linearGradient id="bg" x1="0%" y1="0%" x2="100%" y2="100%">
      <stop offset="0%" style="stop-color:#7f1d1d"/>
      <stop offset="100%" style="stop-color:#ef4444"/>
    </linearGradient>
  </defs>
  <rect width="400" height="300" fill="url(#bg)"/>
  <g transform="translate(200,108)" fill="none" stroke="white" stroke-width="2.5" stroke-linecap="round" stroke-linejoin="round">
    <rect x="-50" y="-35" width="100" height="70" rx="5" fill="rgba(255,255,255,0.1)"/>
    <rect x="-42" y="-28" width="35" height="25" rx="3" fill="rgba(255,255,255,0.12)"/>
    <circle cx="-25" cy="-18" r="6" fill="rgba(255,255,255,0.2)"/>
    <circle cx="-25" cy="-18" r="2" fill="white"/>
    <rect x="0" y="-28" width="35" height="25" rx="3" fill="rgba(255,255,255,0.12)"/>
    <circle cx="17" cy="-18" r="6" fill="rgba(255,255,255,0.2)"/>
    <circle cx="17" cy="-18" r="2" fill="white"/>
    <rect x="-42" y="5" width="35" height="25" rx="3" fill="rgba(255,255,255,0.12)"/>
    <circle cx="-25" cy="15" r="6" fill="rgba(255,255,255,0.2)"/>
    <circle cx="-25" cy="15" r="2" fill="white"/>
    <rect x="0" y="5" width="35" height="25" rx="3" fill="rgba(255,255,255,0.12)"/>
    <circle cx="17" cy="15" r="6" fill="rgba(255,255,255,0.2)"/>
    <circle cx="17" cy="15" r="2" fill="white"/>
    <line x1="-12" y1="-18" x2="0" y2="-18" stroke="rgba(255,255,255,0.3)" stroke-dasharray="2,2"/>
    <line x1="-25" y1="-8" x2="-25" y2="5" stroke="rgba(255,255,255,0.3)" stroke-dasharray="2,2"/>
    <line x1="17" y1="-8" x2="17" y2="5" stroke="rgba(255,255,255,0.3)" stroke-dasharray="2,2"/>
  </g>
  <text x="200" y="225" text-anchor="middle" font-family="system-ui,sans-serif" font-size="18" font-weight="600" fill="white">Event Planning</text>
  <text x="200" y="250" text-anchor="middle" font-family="system-ui,sans-serif" font-size="12" fill="rgba(255,255,255,0.7)">Club Event Support</text>
  <rect x="20" y="20" width="55" height="24" rx="12" fill="rgba(255,255,255,0.15)"/>
  <text x="47" y="36" text-anchor="middle" font-family="system-ui,sans-serif" font-size="11" font-weight="500" fill="white">Events</text>
</svg>