<svg xmlns="http://www.w3.org/2000/svg" width="400" height="300" viewBox="0 0 400 300">
  <defs>
    <linearGradient id="bg" x1="0%" y1="0%" x2="100%" y2="100%">
      <stop offset="0%" style="stop-color:#831843"/>
      <stop offset="100%" style="stop-color:#ec4899"/>
    </linearGradient>
  </defs>
  <rect width="400" height="300" fill="url(#bg)"/>
  <g transform="translate(200,108)" fill="none" stroke="white" stroke-width="2.5" stroke-linecap="round" stroke-linejoin="round">
    <rect x="-35" y="-25" width="70" height="50" rx="5" fill="rgba(255,255,255,0.1)"/>
    <circle cx="0" cy="-8" r="15" fill="rgba(255,255,255,0.12)"/>
    <circle cx="0" cy="-8" r="8" fill="rgba(255,255,255,0.15)"/>
    <circle cx="0" cy="-8" r="3" fill="rgba(255,255,255,0.25)"/>
    <rect x="-25" y="-45" width="50" height="15" rx="3" fill="rgba(255,255,255,0.1)"/>
    <line x1="-15" y1="-38" x2="15" y2="-38" stroke="rgba(255,255,255,0.4)"/>
    <line x1="-10" y1="-33" x2="10" y2="-33" stroke="rgba(255,255,255,0.3)"/>
    <path d="M-50,-8 L-40,-8" stroke="rgba(255,255,255,0.4)"/>
    <path d="M40,-8 L50,-8" stroke="rgba(255,255,255,0.4)"/>
    <path d="M-8,20 L-8,30 L8,30 L8,20" fill="rgba(255,255,255,0.1)"/>
    <line x1="-4" y1="25" x2="4" y2="25" stroke="rgba(255,255,255,0.4)"/>
  </g>
  <text x="200" y="225" text-anchor="middle" font-family="system-ui,sans-serif" font-size="18" font-weight="600" fill="white">Event Photography</text>
  <text x="200" y="250" text-anchor="middle" font-family="system-ui,sans-serif" font-size="12" fill="rgba(255,255,255,0.7)">Graduation &amp; Events</text>
  <rect x="20" y="20" width="88" height="24" rx="12" fill="rgba(255,255,255,0.15)"/>
  <text x="64" y="36" text-anchor="middle" font-family="system-ui,sans-serif" font-size="11" font-weight="500" fill="white">Photography</text>
</svg>