<svg xmlns="http://www.w3.org/2000/svg" width="400" height="300" viewBox="0 0 400 300">
  <defs>
    <linearGradient id="bg" x1="0%" y1="0%" x2="100%" y2="100%">
      <stop offset="0%" style="stop-color:#134e4a"/>
      <stop offset="100%" style="stop-color:#14b8a6"/>
    </linearGradient>
  </defs>
  <rect width="400" height="300" fill="url(#bg)"/>
  <g transform="translate(200,108)" fill="none" stroke="white" stroke-width="2.5" stroke-linecap="round" stroke-linejoin="round">
    <rect x="-40" y="-45" width="80" height="100" rx="4" fill="rgba(255,255,255,0.1)"/>
    <line x1="-30" y1="-35" x2="30" y2="-35"/>
    <line x1="-30" y1="-25" x2="30" y2="-25"/>
    <line x1="-30" y1="-15" x2="30" y2="-15"/>
    <line x1="-30" y1="-5" x2="30" y2="-5"/>
    <line x1="-30" y1="5" x2="30" y2="5"/>
    <line x1="-30" y1="15" x2="10" y2="15"/>
    <rect x="-15" y="25" width="30" height="18" rx="3" fill="rgba(255,255,255,0.15)"/>
    <line x1="0" y1="25" x2="0" y2="43"/>
    <rect x="-38" y="-48" width="76" height="5" rx="2" fill="rgba(255,255,255,0.12)"/>
  </g>
  <text x="200" y="225" text-anchor="middle" font-family="system-ui,sans-serif" font-size="18" font-weight="600" fill="white">Printing &amp; Binding</text>
  <text x="200" y="250" text-anchor="middle" font-family="system-ui,sans-serif" font-size="12" fill="rgba(255,255,255,0.7)">Same-Day Service</text>
  <rect x="20" y="20" width="72" height="24" rx="12" fill="rgba(255,255,255,0.15)"/>
  <text x="56" y="36" text-anchor="middle" font-family="system-ui,sans-serif" font-size="11" font-weight="500" fill="white">Printing</text>
</svg>