<svg xmlns="http://www.w3.org/2000/svg" width="400" height="300" viewBox="0 0 400 300">
  <defs>
    <linearGradient id="bg" x1="0%" y1="0%" x2="100%" y2="100%">
      <stop offset="0%" style="stop-color:#7c2d12"/>
      <stop offset="100%" style="stop-color:#f97316"/>
    </linearGradient>
  </defs>
  <rect width="400" height="300" fill="url(#bg)"/>
  <g transform="translate(200,108)" fill="none" stroke="white" stroke-width="2.5" stroke-linecap="round" stroke-linejoin="round">
    <rect x="-45" y="-35" width="65" height="45" rx="5" fill="rgba(255,255,255,0.1)"/>
    <rect x="-40" y="-30" width="55" height="35" rx="3" fill="rgba(255,255,255,0.08)"/>
    <rect x="25" y="-35" width="30" height="50" rx="4" fill="rgba(255,255,255,0.1)"/>
    <circle cx="40" cy="-15" r="8" fill="rgba(255,255,255,0.15)"/>
    <circle cx="40" cy="-15" r="4" fill="rgba(255,255,255,0.2)"/>
    <line x1="30" y1="5" x2="50" y2="5" stroke="rgba(255,255,255,0.4)"/>
    <path d="M-35,15 L-25,5 L-15,15" stroke="rgba(255,255,255,0.5)"/>
    <line x1="-25" y1="5" x2="-25" y2="20" stroke="rgba(255,255,255,0.5)"/>
    <rect x="-20" y="20" width="40" height="15" rx="3" fill="rgba(255,255,255,0.12)"/>
    <text x="0" y="31" text-anchor="middle" font-family="monospace" font-size="8" fill="white">⚡</text>
  </g>
  <text x="200" y="225" text-anchor="middle" font-family="system-ui,sans-serif" font-size="18" font-weight="600" fill="white">Screen Repair</text>
  <text x="200" y="250" text-anchor="middle" font-family="system-ui,sans-serif" font-size="12" fill="rgba(255,255,255,0.7)">Laptop &amp; Phone</text>
  <rect x="20" y="20" width="55" height="24" rx="12" fill="rgba(255,255,255,0.15)"/>
  <text x="47" y="36" text-anchor="middle" font-family="system-ui,sans-serif" font-size="11" font-weight="500" fill="white">Repair</text>
</svg>