<svg xmlns="http://www.w3.org/2000/svg" width="400" height="300" viewBox="0 0 400 300">
  <defs>
    <linearGradient id="bg" x1="0%" y1="0%" x2="100%" y2="100%">
      <stop offset="0%" style="stop-color:#1e3a5f"/>
      <stop offset="100%" style="stop-color:#3b82f6"/>
    </linearGradient>
  </defs>
  <rect width="400" height="300" fill="url(#bg)"/>
  <g transform="translate(200,108)" fill="none" stroke="white" stroke-width="2.5" stroke-linecap="round" stroke-linejoin="round">
    <circle cx="-20" cy="-20" r="30" fill="rgba(255,255,255,0.1)"/>
    <text x="-20" y="-12" text-anchor="middle" font-family="serif" font-size="22" font-style="italic" fill="white">∫</text>
    <text x="-20" y="8" text-anchor="middle" font-family="serif" font-size="10" fill="rgba(255,255,255,0.7)">dx</text>
    <rect x="10" y="-35" width="55" height="40" rx="4" fill="rgba(255,255,255,0.1)"/>
    <line x1="18" y1="-25" x2="57" y2="-25" stroke="rgba(255,255,255,0.5)"/>
    <line x1="18" y1="-18" x2="50" y2="-18" stroke="rgba(255,255,255,0.4)"/>
    <line x1="18" y1="-11" x2="55" y2="-11" stroke="rgba(255,255,255,0.5)"/>
    <line x1="18" y1="-4" x2="42" y2="-4" stroke="rgba(255,255,255,0.4)"/>
    <path d="M-50,15 Q-20,5 10,20 Q40,35 60,15" fill="none" stroke="rgba(255,255,255,0.3)"/>
    <circle cx="-50" cy="15" r="3" fill="rgba(255,255,255,0.4)"/>
    <circle cx="60" cy="15" r="3" fill="rgba(255,255,255,0.4)"/>
    <path d="M-40,30 Q-10,20 20,35 Q50,50 70,30" fill="none" stroke="rgba(255,255,255,0.2)"/>
  </g>
  <text x="200" y="225" text-anchor="middle" font-family="system-ui,sans-serif" font-size="18" font-weight="600" fill="white">Calculus Tutoring</text>
  <text x="200" y="250" text-anchor="middle" font-family="system-ui,sans-serif" font-size="12" fill="rgba(255,255,255,0.7)">Statistics &amp; Math Help</text>
  <rect x="20" y="20" width="68" height="24" rx="12" fill="rgba(255,255,255,0.15)"/>
  <text x="54" y="36" text-anchor="middle" font-family="system-ui,sans-serif" font-size="11" font-weight="500" fill="white">Tutoring</text>
</svg>